<mxfile host="app.diagrams.net" agent="Mozilla/5.0 (Windows NT 10.0; Win64; x64) AppleWebKit/537.36 (KHTML, like Gecko) Chrome/127.0.0.0 Safari/537.36 OPR/113.0.0.0" version="24.7.14">
  <diagram name="PÃ¡gina-1" id="nZAmSAwmiweM6L6BnX0c">
    <mxGraphModel grid="1" page="1" gridSize="10" guides="1" tooltips="1" connect="1" arrows="1" fold="1" pageScale="1" pageWidth="827" pageHeight="1169" math="0" shadow="0">
      <root>
        <mxCell id="0" />
        <mxCell id="1" parent="0" />
        <mxCell id="QRlBJae7Lshf3TAsS9Rg-1" value="Interfaz" style="shape=umlLifeline;perimeter=lifelinePerimeter;whiteSpace=wrap;html=1;container=1;collapsible=0;recursiveResize=0;outlineConnect=0;rounded=1;shadow=0;comic=0;labelBackgroundColor=none;strokeWidth=1;fontFamily=Verdana;fontSize=12;align=center;" vertex="1" parent="1">
          <mxGeometry x="400" y="40" width="100" height="400" as="geometry" />
        </mxCell>
        <mxCell id="QRlBJae7Lshf3TAsS9Rg-2" value="" style="html=1;points=[];perimeter=orthogonalPerimeter;rounded=0;shadow=0;comic=0;labelBackgroundColor=none;strokeWidth=1;fontFamily=Verdana;fontSize=12;align=center;" vertex="1" parent="QRlBJae7Lshf3TAsS9Rg-1">
          <mxGeometry x="45" y="100" width="10" height="20" as="geometry" />
        </mxCell>
        <mxCell id="QRlBJae7Lshf3TAsS9Rg-3" value="" style="html=1;points=[];perimeter=orthogonalPerimeter;rounded=0;shadow=0;comic=0;labelBackgroundColor=none;strokeWidth=1;fontFamily=Verdana;fontSize=12;align=center;" vertex="1" parent="QRlBJae7Lshf3TAsS9Rg-1">
          <mxGeometry x="45" y="130" width="10" height="30" as="geometry" />
        </mxCell>
        <mxCell id="QRlBJae7Lshf3TAsS9Rg-4" value="" style="html=1;points=[];perimeter=orthogonalPerimeter;rounded=0;shadow=0;comic=0;labelBackgroundColor=none;strokeWidth=1;fontFamily=Verdana;fontSize=12;align=center;" vertex="1" parent="QRlBJae7Lshf3TAsS9Rg-1">
          <mxGeometry x="45" y="320" width="10" height="30" as="geometry" />
        </mxCell>
        <mxCell id="QRlBJae7Lshf3TAsS9Rg-5" value="" style="html=1;points=[];perimeter=orthogonalPerimeter;rounded=0;shadow=0;comic=0;labelBackgroundColor=none;strokeWidth=1;fontFamily=Verdana;fontSize=12;align=center;" vertex="1" parent="QRlBJae7Lshf3TAsS9Rg-1">
          <mxGeometry x="45" y="200" width="10" height="20" as="geometry" />
        </mxCell>
        <mxCell id="QRlBJae7Lshf3TAsS9Rg-9" value="Capa de negocio" style="shape=umlLifeline;perimeter=lifelinePerimeter;whiteSpace=wrap;html=1;container=1;collapsible=0;recursiveResize=0;outlineConnect=0;rounded=1;shadow=0;comic=0;labelBackgroundColor=none;strokeWidth=1;fontFamily=Verdana;fontSize=12;align=center;" vertex="1" parent="1">
          <mxGeometry x="600" y="40" width="100" height="400" as="geometry" />
        </mxCell>
        <mxCell id="QRlBJae7Lshf3TAsS9Rg-10" value="" style="html=1;points=[];perimeter=orthogonalPerimeter;rounded=0;shadow=0;comic=0;labelBackgroundColor=none;strokeWidth=1;fontFamily=Verdana;fontSize=12;align=center;" vertex="1" parent="QRlBJae7Lshf3TAsS9Rg-9">
          <mxGeometry x="45" y="220" width="10" height="40" as="geometry" />
        </mxCell>
        <mxCell id="QRlBJae7Lshf3TAsS9Rg-11" value="" style="html=1;points=[];perimeter=orthogonalPerimeter;rounded=0;shadow=0;comic=0;labelBackgroundColor=none;strokeWidth=1;fontFamily=Verdana;fontSize=12;align=center;" vertex="1" parent="QRlBJae7Lshf3TAsS9Rg-9">
          <mxGeometry x="50" y="220" width="10" height="20" as="geometry" />
        </mxCell>
        <mxCell id="QRlBJae7Lshf3TAsS9Rg-12" value="7.-Valida datos dispositivos" style="html=1;verticalAlign=bottom;endArrow=block;labelBackgroundColor=none;fontFamily=Verdana;fontSize=12;elbow=vertical;edgeStyle=orthogonalEdgeStyle;curved=1;entryX=1.1;entryY=1;entryPerimeter=0;entryDx=0;entryDy=0;exitX=1.02;exitY=0.012;exitDx=0;exitDy=0;exitPerimeter=0;" edge="1" parent="QRlBJae7Lshf3TAsS9Rg-9" source="QRlBJae7Lshf3TAsS9Rg-11" target="QRlBJae7Lshf3TAsS9Rg-11">
          <mxGeometry x="0.0082" y="83" relative="1" as="geometry">
            <mxPoint x="77.5" y="219.97000000000003" as="sourcePoint" />
            <mxPoint x="82.50333333333356" y="258.3033333333334" as="targetPoint" />
            <Array as="points">
              <mxPoint x="87.5" y="220" />
              <mxPoint x="87.5" y="240" />
            </Array>
            <mxPoint as="offset" />
          </mxGeometry>
        </mxCell>
        <mxCell id="QRlBJae7Lshf3TAsS9Rg-46" value="" style="html=1;points=[];perimeter=orthogonalPerimeter;rounded=0;shadow=0;comic=0;labelBackgroundColor=none;strokeWidth=1;fontFamily=Verdana;fontSize=12;align=center;" vertex="1" parent="QRlBJae7Lshf3TAsS9Rg-9">
          <mxGeometry x="45" y="290" width="10" height="30" as="geometry" />
        </mxCell>
        <mxCell id="QRlBJae7Lshf3TAsS9Rg-18" value="Base de datos" style="shape=umlLifeline;perimeter=lifelinePerimeter;whiteSpace=wrap;html=1;container=1;collapsible=0;recursiveResize=0;outlineConnect=0;rounded=1;shadow=0;comic=0;labelBackgroundColor=none;strokeWidth=1;fontFamily=Verdana;fontSize=12;align=center;" vertex="1" parent="1">
          <mxGeometry x="820" y="40" width="100" height="400" as="geometry" />
        </mxCell>
        <mxCell id="QRlBJae7Lshf3TAsS9Rg-19" value="" style="html=1;points=[];perimeter=orthogonalPerimeter;rounded=0;shadow=0;comic=0;labelBackgroundColor=none;strokeWidth=1;fontFamily=Verdana;fontSize=12;align=center;" vertex="1" parent="QRlBJae7Lshf3TAsS9Rg-18">
          <mxGeometry x="45" y="260" width="10" height="30" as="geometry" />
        </mxCell>
        <mxCell id="QRlBJae7Lshf3TAsS9Rg-21" value="Usuario" style="shape=umlLifeline;perimeter=lifelinePerimeter;whiteSpace=wrap;html=1;container=1;collapsible=0;recursiveResize=0;outlineConnect=0;rounded=1;shadow=0;comic=0;labelBackgroundColor=none;strokeWidth=1;fontFamily=Verdana;fontSize=12;align=center;" vertex="1" parent="1">
          <mxGeometry x="190" y="40" width="100" height="400" as="geometry" />
        </mxCell>
        <mxCell id="QRlBJae7Lshf3TAsS9Rg-22" value="" style="html=1;points=[];perimeter=orthogonalPerimeter;rounded=0;shadow=0;comic=0;labelBackgroundColor=none;strokeWidth=1;fontFamily=Verdana;fontSize=12;align=center;" vertex="1" parent="QRlBJae7Lshf3TAsS9Rg-21">
          <mxGeometry x="45" y="100" width="10" height="280" as="geometry" />
        </mxCell>
        <mxCell id="QRlBJae7Lshf3TAsS9Rg-23" value="1.-Seleccionar informaciones" style="html=1;verticalAlign=bottom;endArrow=block;entryX=0;entryY=0;labelBackgroundColor=none;fontFamily=Verdana;fontSize=12;edgeStyle=elbowEdgeStyle;elbow=vertical;exitX=0.68;exitY=-0.003;exitDx=0;exitDy=0;exitPerimeter=0;" edge="1" parent="1">
          <mxGeometry relative="1" as="geometry">
            <mxPoint x="241.79999999999995" y="140" as="sourcePoint" />
            <mxPoint as="offset" />
            <mxPoint x="445" y="141.5" as="targetPoint" />
          </mxGeometry>
        </mxCell>
        <mxCell id="QRlBJae7Lshf3TAsS9Rg-27" value="3.-Seleccionar administrar dispositivos" style="html=1;verticalAlign=bottom;endArrow=block;labelBackgroundColor=none;fontFamily=Verdana;fontSize=12;edgeStyle=elbowEdgeStyle;elbow=vertical;exitX=0.96;exitY=0.118;exitDx=0;exitDy=0;exitPerimeter=0;" edge="1" parent="1">
          <mxGeometry x="-0.041" y="-20" relative="1" as="geometry">
            <mxPoint x="244.60000000000002" y="170.01" as="sourcePoint" />
            <mxPoint x="449.5" y="170" as="targetPoint" />
            <mxPoint as="offset" />
          </mxGeometry>
        </mxCell>
        <mxCell id="QRlBJae7Lshf3TAsS9Rg-28" value="10.-Despliegue de datos" style="html=1;verticalAlign=bottom;endArrow=block;labelBackgroundColor=none;fontFamily=Verdana;fontSize=12;edgeStyle=elbowEdgeStyle;elbow=vertical;exitX=0.105;exitY=0.983;exitDx=0;exitDy=0;exitPerimeter=0;entryX=1.033;entryY=0.033;entryDx=0;entryDy=0;entryPerimeter=0;" edge="1" parent="1" source="QRlBJae7Lshf3TAsS9Rg-46" target="QRlBJae7Lshf3TAsS9Rg-4">
          <mxGeometry relative="1" as="geometry">
            <mxPoint x="640" y="360" as="sourcePoint" />
            <Array as="points">
              <mxPoint x="565.4" y="361" />
            </Array>
            <mxPoint x="510" y="361" as="targetPoint" />
          </mxGeometry>
        </mxCell>
        <mxCell id="QRlBJae7Lshf3TAsS9Rg-29" value="2.-Despliegue Informaciones" style="html=1;verticalAlign=bottom;endArrow=block;labelBackgroundColor=none;fontFamily=Verdana;fontSize=12;edgeStyle=elbowEdgeStyle;elbow=vertical;exitX=-0.08;exitY=1;exitDx=0;exitDy=0;exitPerimeter=0;" edge="1" parent="1" source="QRlBJae7Lshf3TAsS9Rg-2" target="QRlBJae7Lshf3TAsS9Rg-22">
          <mxGeometry x="0.0028" y="1" relative="1" as="geometry">
            <mxPoint x="454.6700000000001" y="161.09000000000003" as="sourcePoint" />
            <mxPoint x="270" y="160" as="targetPoint" />
            <mxPoint as="offset" />
            <Array as="points">
              <mxPoint x="340" y="160" />
            </Array>
          </mxGeometry>
        </mxCell>
        <mxCell id="QRlBJae7Lshf3TAsS9Rg-30" value="4.-Despliegue adm. dispositivos" style="html=1;verticalAlign=bottom;endArrow=block;labelBackgroundColor=none;fontFamily=Verdana;fontSize=12;edgeStyle=elbowEdgeStyle;elbow=vertical;exitX=-0.04;exitY=1;exitDx=0;exitDy=0;exitPerimeter=0;entryX=1.003;entryY=0.216;entryDx=0;entryDy=0;entryPerimeter=0;" edge="1" parent="1" source="QRlBJae7Lshf3TAsS9Rg-3" target="QRlBJae7Lshf3TAsS9Rg-22">
          <mxGeometry x="-0.0497" y="20" relative="1" as="geometry">
            <mxPoint x="449.00000000000006" y="201.09000000000003" as="sourcePoint" />
            <mxPoint x="260" y="200" as="targetPoint" />
            <mxPoint as="offset" />
            <Array as="points">
              <mxPoint x="260" y="200" />
            </Array>
          </mxGeometry>
        </mxCell>
        <mxCell id="QRlBJae7Lshf3TAsS9Rg-31" value="5.-Seleccionar dispositivos" style="html=1;verticalAlign=bottom;endArrow=block;labelBackgroundColor=none;fontFamily=Verdana;fontSize=12;edgeStyle=elbowEdgeStyle;elbow=vertical;entryX=-0.08;entryY=0;entryDx=0;entryDy=0;entryPerimeter=0;exitX=1.044;exitY=0.359;exitDx=0;exitDy=0;exitPerimeter=0;" edge="1" parent="1" source="QRlBJae7Lshf3TAsS9Rg-22" target="QRlBJae7Lshf3TAsS9Rg-5">
          <mxGeometry relative="1" as="geometry">
            <mxPoint x="300" y="240" as="sourcePoint" />
            <mxPoint as="offset" />
            <mxPoint x="410" y="240" as="targetPoint" />
            <Array as="points">
              <mxPoint x="340" y="240" />
            </Array>
          </mxGeometry>
        </mxCell>
        <mxCell id="QRlBJae7Lshf3TAsS9Rg-33" value="6.-Realizar monitoreo" style="html=1;verticalAlign=bottom;endArrow=block;labelBackgroundColor=none;fontFamily=Verdana;fontSize=12;edgeStyle=elbowEdgeStyle;elbow=vertical;exitX=1.057;exitY=0.321;exitDx=0;exitDy=0;exitPerimeter=0;entryX=0.071;entryY=0.043;entryDx=0;entryDy=0;entryPerimeter=0;" edge="1" parent="1">
          <mxGeometry x="-0.0013" relative="1" as="geometry">
            <mxPoint x="449.99999999999994" y="260.5" as="sourcePoint" />
            <mxPoint as="offset" />
            <mxPoint x="645.71" y="260.86" as="targetPoint" />
            <Array as="points">
              <mxPoint x="544.4300000000001" y="260" />
            </Array>
          </mxGeometry>
        </mxCell>
        <mxCell id="QRlBJae7Lshf3TAsS9Rg-34" value="8.-Busqueda localizacion" style="html=1;verticalAlign=bottom;endArrow=block;labelBackgroundColor=none;fontFamily=Verdana;fontSize=12;edgeStyle=elbowEdgeStyle;elbow=vertical;exitX=0.933;exitY=1.017;exitDx=0;exitDy=0;exitPerimeter=0;entryX=-0.067;entryY=0;entryDx=0;entryDy=0;entryPerimeter=0;" edge="1" parent="1" source="QRlBJae7Lshf3TAsS9Rg-10" target="QRlBJae7Lshf3TAsS9Rg-19">
          <mxGeometry x="0.0096" relative="1" as="geometry">
            <mxPoint x="656" y="280" as="sourcePoint" />
            <mxPoint as="offset" />
            <mxPoint x="855.5699999999999" y="280.84999999999997" as="targetPoint" />
          </mxGeometry>
        </mxCell>
        <mxCell id="QRlBJae7Lshf3TAsS9Rg-37" value="11.-Muestra localizaciÃ³n dispositivos" style="html=1;verticalAlign=bottom;endArrow=block;labelBackgroundColor=none;fontFamily=Verdana;fontSize=12;edgeStyle=elbowEdgeStyle;elbow=vertical;exitX=0.343;exitY=1.014;exitDx=0;exitDy=0;exitPerimeter=0;entryX=0.989;entryY=0.893;entryDx=0;entryDy=0;entryPerimeter=0;" edge="1" parent="1" source="QRlBJae7Lshf3TAsS9Rg-4" target="QRlBJae7Lshf3TAsS9Rg-22">
          <mxGeometry x="0.0003" relative="1" as="geometry">
            <mxPoint x="414" y="440.05" as="sourcePoint" />
            <Array as="points">
              <mxPoint x="350" y="390" />
            </Array>
            <mxPoint x="284" y="440.05" as="targetPoint" />
            <mxPoint as="offset" />
          </mxGeometry>
        </mxCell>
        <mxCell id="QRlBJae7Lshf3TAsS9Rg-45" value="9.-Captura los datos" style="html=1;verticalAlign=bottom;endArrow=block;labelBackgroundColor=none;fontFamily=Verdana;fontSize=12;edgeStyle=elbowEdgeStyle;elbow=vertical;exitX=0;exitY=1.011;exitDx=0;exitDy=0;exitPerimeter=0;entryX=0.867;entryY=0.033;entryDx=0;entryDy=0;entryPerimeter=0;" edge="1" parent="1" source="QRlBJae7Lshf3TAsS9Rg-19" target="QRlBJae7Lshf3TAsS9Rg-46">
          <mxGeometry x="-0.0094" y="1" relative="1" as="geometry">
            <mxPoint x="857" y="329" as="sourcePoint" />
            <Array as="points">
              <mxPoint x="782.4" y="330" />
            </Array>
            <mxPoint x="700" y="330" as="targetPoint" />
            <mxPoint as="offset" />
          </mxGeometry>
        </mxCell>
      </root>
    </mxGraphModel>
  </diagram>
</mxfile>
